<?xml version="1.0" encoding="UTF-8" standalone="no"?>
<!DOCTYPE svg PUBLIC "-//W3C//DTD SVG 1.1//EN" "http://www.w3.org/Graphics/SVG/1.1/DTD/svg11.dtd">
<svg width="100%" height="100%" viewBox="0 0 135 135" version="1.1" xmlns="http://www.w3.org/2000/svg" xmlns:xlink="http://www.w3.org/1999/xlink" xml:space="preserve" xmlns:serif="http://www.serif.com/" style="fill-rule:evenodd;clip-rule:evenodd;stroke-linecap:round;stroke-linejoin:round;stroke-miterlimit:1.5;">
    <g transform="matrix(1,0,0,1,-471.931,-606.858)">
        <g transform="matrix(0.178786,0,0,0.17885,478.659,581.989)">
            <circle cx="241.725" cy="418.402" r="256.598" style="fill:none;stroke:black;stroke-width:45.51px;"/>
        </g>
        <g transform="matrix(0.126421,-0.126466,0.126421,0.126466,370.888,644.838)">
            <path d="M558.795,905.244C558.795,902.65 556.69,900.545 554.097,900.545L544.699,900.545C542.105,900.545 540,902.65 540,905.244L540,1283.19C540,1285.79 542.105,1287.89 544.699,1287.89L554.097,1287.89C556.69,1287.89 558.795,1285.79 558.795,1283.19L558.795,905.244Z" style="fill:none;stroke:black;stroke-width:30.9px;"/>
        </g>
        <g transform="matrix(0.120581,0,0,0.120946,480.773,656.893)">
            <text x="268.592px" y="202.594px" style="font-family:'RobotoCondensed-Regular', 'Roboto Condensed';font-size:576px;">!</text>
        </g>
    </g>
</svg>
